<?xml version="1.0" standalone="no"?>
<!DOCTYPE svg PUBLIC "-//W3C//DTD SVG 20010904//EN"
 "http://www.w3.org/TR/2001/REC-SVG-20010904/DTD/svg10.dtd">
<svg version="1.0" xmlns="http://www.w3.org/2000/svg"
 width="300.000000pt" height="150.000000pt" viewBox="0 0 300.000000 150.000000"
 preserveAspectRatio="xMidYMid meet">
<metadata>
Created by potrace 1.10, written by Peter Selinger 2001-2011
</metadata>
<g transform="translate(0.000000,150.000000) scale(0.100000,-0.100000)"
fill="#000000" stroke="none">
<path d="M645 1325 c-5 -2 -22 -6 -37 -9 -35 -8 -60 -46 -68 -100 l-5 -41
-118 -5 c-115 -5 -120 -6 -143 -33 -30 -35 -30 -41 1 -391 13 -154 22 -282 20
-285 -3 -2 -29 8 -58 22 -90 46 -113 32 -104 -66 10 -120 60 -237 117 -278 24
-17 93 -18 1295 -20 699 -1 1278 1 1287 5 34 15 33 48 -3 81 -19 18 -45 44
-58 58 l-23 26 31 50 c42 69 73 164 69 215 l-3 41 -75 -2 -75 -3 33 28 c23 19
31 33 27 44 -9 22 -32 30 -55 18 -25 -13 -46 17 -56 77 -3 23 -16 51 -28 62
-20 19 -24 19 -50 6 -15 -8 -41 -26 -58 -40 -20 -17 -41 -25 -69 -25 l-39 0 0
68 c0 84 -16 103 -93 113 -29 3 -83 14 -122 24 -38 9 -79 18 -90 20 -23 5 -65
109 -65 162 0 17 -5 35 -11 39 -6 3 -19 26 -29 49 -30 70 -71 82 -120 38 -27
-25 -31 -35 -34 -103 -5 -77 -12 -110 -26 -110 -31 0 -98 36 -125 68 l-33 37
-262 5 -262 5 -19 51 c-11 28 -31 62 -45 75 -25 23 -30 24 -217 26 -106 1
-196 1 -202 -2z m407 -65 c10 -14 23 -52 29 -85 l12 -60 267 3 c236 3 269 1
284 -13 9 -9 16 -25 16 -36 0 -14 7 -19 25 -19 14 0 52 -7 84 -16 33 -9 66
-14 74 -11 10 4 17 27 22 66 4 34 11 61 15 61 5 0 1 18 -8 41 -15 40 -15 40
11 65 14 13 33 24 41 24 20 0 46 -39 46 -67 0 -16 8 -27 27 -34 21 -8 24 -12
14 -22 -10 -9 -17 -6 -36 15 -14 17 -27 24 -30 17 -8 -12 13 -39 31 -39 7 0
16 -16 20 -37 4 -21 18 -59 31 -84 13 -25 21 -53 18 -61 -5 -13 8 -18 67 -28
40 -6 92 -18 116 -26 23 -8 66 -14 93 -14 l51 0 -6 -47 c-4 -27 -9 -67 -13
-90 l-5 -43 68 0 c67 0 68 1 124 50 32 27 60 46 64 43 3 -4 6 -31 6 -60 0 -40
6 -62 23 -84 20 -28 23 -46 27 -177 5 -124 9 -153 27 -187 24 -46 99 -119 132
-130 11 -3 21 -11 21 -17 0 -7 -22 -8 -67 -4 -38 3 -158 6 -268 5 -773 -4
-1125 -3 -1125 3 0 3 15 64 34 135 57 214 146 560 146 567 0 4 -4 4 -10 1 -5
-3 -10 -15 -10 -26 0 -15 -7 -19 -30 -19 -28 0 -30 2 -24 26 5 19 4 25 -5 20
-6 -4 -11 -15 -11 -25 0 -9 -7 -26 -15 -37 -20 -27 -20 -51 0 -34 8 7 15 19
15 26 0 9 11 14 31 14 26 0 30 -2 19 -15 -6 -8 -20 -17 -31 -20 -11 -4 -17
-10 -14 -15 3 -5 -8 -18 -24 -29 -18 -13 -31 -32 -33 -49 -3 -26 -5 -27 -61
-26 l-58 1 2 -111 c1 -61 -2 -146 -6 -188 -6 -69 -5 -78 9 -78 23 0 41 49 24
64 -10 8 -12 44 -8 146 l5 135 35 0 35 0 -4 -60 c-2 -33 -12 -93 -22 -134 -10
-41 -19 -76 -19 -78 0 -1 14 -3 30 -3 34 0 35 -2 18 -65 -10 -37 -16 -45 -35
-45 -15 0 -21 5 -17 14 5 12 -67 14 -482 16 -269 0 -490 2 -491 4 -4 4 -25
229 -54 565 -21 248 -21 255 -3 268 15 11 54 14 177 11 l157 -3 0 33 c0 31 -2
32 -40 32 -25 0 -40 5 -40 13 0 25 20 81 32 89 7 4 107 7 222 5 l209 -2 19
-25z m-585 -130 c-125 -4 -160 -8 -167 -20 -5 -8 -10 -44 -10 -79 0 -80 -6
-76 -13 7 -8 100 -3 102 191 100 l157 -2 -158 -6z m1197 -12 c23 -32 20 -45
-3 -17 -19 24 -21 24 -283 29 l-263 6 267 2 c266 2 267 2 282 -20z m-1357
-360 c-2 -18 -4 -6 -4 27 0 33 2 48 4 33 2 -15 2 -42 0 -60z m1197 -65 c-20
-78 -19 -78 -52 -81 -36 -4 -39 6 -20 69 10 35 14 39 45 39 31 0 33 -2 27 -27z
m-28 -110 c-3 -10 -10 -37 -16 -60 -7 -28 -16 -43 -27 -43 -12 0 -14 7 -9 31
3 17 6 44 6 60 0 24 4 29 26 29 19 0 24 -4 20 -17z m1348 -63 c-20 -88 -100
-237 -118 -220 -3 3 -8 50 -11 105 -3 54 -10 104 -16 111 -13 15 -3 22 70 45
91 29 92 29 75 -41z m-2567 -86 c56 -42 81 -84 85 -139 l3 -50 468 0 c441 0
468 -1 463 -17 -15 -45 -15 -60 -1 -30 14 29 19 32 60 32 47 0 49 -3 36 -48
l-6 -24 -549 1 c-404 1 -553 4 -563 13 -28 23 -66 114 -84 203 -10 49 -19 96
-19 103 0 16 61 -8 107 -44z m1176 -16 c-19 -63 -16 -60 -37 -52 -12 5 -16 14
-12 30 14 53 26 74 45 74 18 0 18 -2 4 -52z"/>
<path d="M878 1243 c28 -2 76 -2 105 0 28 2 5 3 -53 3 -58 0 -81 -1 -52 -3z"/>
<path d="M726 1221 c-24 -27 -25 -65 -1 -68 11 -1 14 0 8 3 -15 7 -17 40 -4
49 14 8 41 -23 35 -39 -8 -20 12 -28 25 -12 10 11 9 21 -3 44 -19 37 -40 45
-60 23z"/>
<path d="M883 1213 c32 -2 81 -2 110 0 29 2 3 3 -58 3 -60 0 -84 -1 -52 -3z"/>
<path d="M893 1183 c32 -2 81 -2 110 0 29 2 3 3 -58 3 -60 0 -84 -1 -52 -3z"/>
<path d="M840 1161 c0 -7 35 -11 112 -11 61 0 109 2 107 4 -2 3 -53 8 -112 12
-77 5 -107 3 -107 -5z"/>
<path d="M691 1130 c-8 -4 -11 -15 -8 -24 5 -12 21 -16 72 -16 58 0 65 2 65
19 0 27 -19 36 -33 17 -14 -18 -64 -17 -75 1 -5 7 -13 9 -21 3z"/>
<path d="M850 1130 c0 -6 42 -10 105 -10 63 0 105 4 105 10 0 6 -42 10 -105
10 -63 0 -105 -4 -105 -10z"/>
<path d="M850 1100 c0 -6 43 -10 110 -10 67 0 110 4 110 10 0 6 -43 10 -110
10 -67 0 -110 -4 -110 -10z"/>
<path d="M352 1048 c-7 -7 -12 -20 -12 -30 0 -17 13 -18 163 -18 l164 0 -5 30
-4 30 -147 0 c-101 0 -151 -4 -159 -12z m272 -4 c9 -3 16 -12 16 -20 0 -11
-27 -14 -140 -14 -114 0 -140 3 -140 14 0 8 6 17 13 19 18 8 232 8 251 1z"/>
<path d="M783 1053 c53 -2 141 -2 195 0 53 1 9 3 -98 3 -107 0 -151 -2 -97 -3z"/>
<path d="M1100 1030 l0 -30 139 0 c118 0 140 2 145 16 3 9 3 20 0 26 -4 6 2 8
12 6 10 -2 24 -14 31 -28 11 -22 13 -23 13 -4 0 40 -17 44 -182 44 l-158 0 0
-30z m130 0 c0 -18 -7 -20 -55 -20 -30 0 -55 4 -55 8 0 19 27 32 67 32 36 0
43 -3 43 -20z m141 9 c22 -14 -6 -27 -61 -27 -55 0 -83 13 -61 27 7 5 35 9 61
9 26 0 54 -4 61 -9z"/>
<path d="M793 1023 c54 -2 139 -2 190 0 51 1 7 3 -98 3 -104 0 -146 -2 -92 -3z"/>
<path d="M1597 1023 c-13 -13 -7 -33 16 -48 27 -18 119 -47 112 -35 -3 4 -17
11 -31 14 -57 15 -94 56 -61 69 6 3 3 6 -9 6 -11 1 -24 -2 -27 -6z"/>
<path d="M1970 1003 c-16 -8 -51 -12 -93 -11 -64 2 -69 1 -92 -27 -31 -39 -31
-42 6 -50 42 -9 259 4 259 16 0 15 -49 30 -75 23 -13 -3 -26 0 -30 7 -6 8 -2
11 11 7 23 -6 74 36 52 44 -7 2 -24 -1 -38 -9z m-111 -37 c10 -12 6 -15 -19
-21 -39 -9 -51 2 -26 21 25 18 31 18 45 0z"/>
<path d="M793 993 c54 -2 139 -2 190 0 51 1 7 3 -98 3 -104 0 -146 -2 -92 -3z"/>
<path d="M650 910 c1 -47 1 -94 1 -105 -5 -66 2 -124 15 -141 14 -17 15 -3 9
146 -3 91 -11 170 -16 175 -7 7 -10 -18 -9 -75z"/>
<path d="M1110 838 c0 -85 3 -157 6 -161 8 -8 63 56 57 67 -3 5 -11 -2 -18
-14 -12 -22 -13 -22 -18 16 -4 21 -9 83 -11 138 -3 54 -8 101 -11 104 -3 3 -5
-64 -5 -150z"/>
<path d="M1385 976 c-31 -22 -13 -46 31 -39 l37 6 -19 -26 c-16 -22 -21 -23
-34 -11 -14 11 -16 11 -17 -5 -2 -21 36 -36 51 -21 19 19 35 84 24 97 -14 17
-49 17 -73 -1z"/>
<path d="M1563 977 c4 -10 7 -30 7 -43 0 -23 2 -24 78 -23 l77 0 -50 14 c-27
8 -54 14 -58 15 -4 0 -20 12 -34 28 -18 18 -24 21 -20 9z"/>
<path d="M793 963 c53 -2 141 -2 195 0 53 1 9 3 -98 3 -107 0 -151 -2 -97 -3z"/>
<path d="M793 933 c53 -2 141 -2 195 0 53 1 9 3 -98 3 -107 0 -151 -2 -97 -3z"/>
<path d="M1311 904 c-1 -29 1 -31 26 -26 23 4 25 6 8 12 -10 3 -22 15 -26 26
-6 15 -8 13 -8 -12z"/>
<path d="M773 903 c43 -2 110 -2 150 0 40 1 5 3 -78 3 -82 0 -115 -2 -72 -3z"/>
<path d="M2168 879 c-2 -6 -41 -13 -91 -16 -48 -3 -90 -9 -92 -13 -4 -7 94 -4
153 4 24 3 26 -3 16 -53 l-6 -31 -87 -2 -86 -2 84 -5 c54 -4 86 -10 89 -18 2
-9 -11 -14 -45 -15 l-48 -1 43 -4 c42 -4 43 -5 37 -34 l-7 -29 35 20 c19 11
63 26 98 33 46 8 56 13 36 15 -15 2 -50 -3 -77 -11 -59 -17 -70 -9 -60 41 4
20 10 58 13 85 4 45 3 59 -5 36z"/>
<path d="M1010 870 c-12 -8 -11 -10 8 -10 12 0 22 -4 22 -9 0 -5 -9 -7 -20 -4
-23 6 -28 -15 -8 -35 14 -14 0 -16 -21 -3 -7 5 -10 14 -7 20 4 6 1 11 -6 11
-9 0 -9 3 2 10 8 5 12 10 9 10 -8 0 -233 -80 -237 -85 -2 -2 -1 -17 3 -34 7
-32 27 -40 55 -21 11 8 9 9 -11 5 -22 -5 -27 -2 -32 17 -4 12 -2 27 2 31 12
12 53 -2 45 -14 -4 -6 -11 -6 -20 2 -11 9 -14 8 -14 -5 0 -22 36 -21 44 1 6
15 8 15 16 3 6 -9 5 -17 -3 -22 -7 -4 -9 -8 -5 -8 12 0 213 72 221 79 8 8 -11
71 -21 71 -4 0 -14 -5 -22 -10z m-40 -45 c0 -9 7 -18 16 -22 10 -4 -10 -15
-56 -31 -70 -24 -89 -24 -75 -2 6 9 10 9 16 -1 7 -11 9 -11 9 -1 0 7 5 10 11
7 6 -4 13 2 16 14 3 12 10 21 15 21 6 0 7 -7 4 -16 -5 -13 -4 -14 7 -6 8 7 17
8 22 4 4 -4 6 0 3 8 -7 21 -39 25 -53 7 -6 -9 -20 -16 -31 -15 -10 0 -32 -2
-49 -6 -23 -5 -21 -3 9 9 21 8 42 12 47 9 5 -3 9 -1 9 5 0 9 43 29 68 30 6 1
12 -6 12 -14z"/>
<path d="M1354 862 c-15 -9 -37 -52 -31 -59 3 -2 8 5 12 16 3 12 16 21 32 23
22 2 24 5 12 15 -8 6 -19 9 -25 5z"/>
<path d="M1400 853 c1 -12 40 -59 40 -48 0 26 -14 55 -26 55 -8 0 -14 -3 -14
-7z"/>
<path d="M998 743 c18 -2 45 -2 60 0 15 2 0 4 -33 4 -33 0 -45 -2 -27 -4z"/>
<path d="M2530 730 c-14 -5 -18 -8 -9 -9 9 -1 32 -4 50 -7 32 -5 33 -5 15 10
-22 18 -20 17 -56 6z"/>
<path d="M1595 720 c7 -12 69 -12 105 0 18 6 6 8 -43 9 -43 1 -66 -3 -62 -9z"/>
<path d="M923 713 c32 -2 81 -2 110 0 29 2 3 3 -58 3 -60 0 -84 -1 -52 -3z"/>
<path d="M803 683 c54 -2 139 -2 190 0 51 1 7 3 -98 3 -104 0 -146 -2 -92 -3z"/>
<path d="M2194 666 c-47 -21 -50 -36 -4 -20 35 12 45 12 75 0 63 -27 43 -38
-62 -34 -54 2 -233 2 -398 0 -294 -2 -300 -3 -276 -21 15 -12 20 -20 12 -22
-13 -5 -18 -100 -6 -119 4 -6 80 -10 195 -10 217 0 223 2 218 76 -2 24 -6 44
-10 44 -5 0 -8 7 -8 15 0 12 13 15 59 15 32 0 72 3 90 6 27 6 33 3 48 -25 10
-17 20 -31 23 -31 3 0 11 13 18 30 13 27 16 29 60 25 26 -2 50 -4 55 -5 4 0 7
-57 6 -127 0 -71 5 -148 11 -173 13 -54 56 -106 93 -115 25 -7 25 -5 -12 32
-52 51 -61 91 -61 265 0 80 -3 154 -6 163 -7 17 -55 45 -76 45 -7 -1 -27 -7
-44 -14z m-264 -156 l0 -50 -195 0 -195 0 0 50 0 50 195 0 195 0 0 -50z"/>
<path d="M2475 670 c3 -5 36 -10 72 -10 83 0 79 5 -10 14 -46 5 -67 3 -62 -4z"/>
<path d="M2386 662 c-3 -4 -7 -26 -10 -47 -3 -22 -8 -50 -12 -62 -6 -22 -4
-23 60 -23 36 0 66 3 66 6 0 3 -16 32 -36 64 -35 56 -58 78 -68 62z m34 -57
c0 -14 5 -25 10 -25 6 0 10 -4 10 -10 0 -5 -9 -10 -20 -10 -13 0 -20 7 -20 19
0 11 -3 26 -6 35 -4 11 -1 16 10 16 10 0 16 -9 16 -25z"/>
<path d="M1053 610 c-51 -47 -61 -60 -45 -60 8 0 112 96 112 104 0 14 -18 2
-67 -44z"/>
<path d="M705 614 c17 -14 49 -36 73 -50 23 -14 40 -29 38 -33 -3 -4 -43 -40
-90 -81 -47 -41 -83 -76 -81 -78 2 -2 46 33 97 78 117 104 117 104 96 97 -10
-4 -18 -3 -18 2 0 10 -122 91 -136 91 -5 -1 5 -12 21 -26z"/>
<path d="M833 633 c37 -2 96 -2 130 0 34 2 4 3 -68 3 -71 0 -99 -1 -62 -3z"/>
<path d="M2500 630 c0 -6 29 -10 66 -10 41 0 63 4 59 10 -3 6 -33 10 -66 10
-33 0 -59 -4 -59 -10z"/>
<path d="M2510 590 c0 -6 27 -10 63 -9 44 0 56 3 42 9 -28 12 -105 12 -105 0z"/>
<path d="M874 569 c-18 -20 -18 -20 9 -14 40 10 98 -17 196 -92 116 -90 111
-86 111 -80 0 7 -208 167 -216 167 -3 0 -17 9 -31 20 -32 25 -45 25 -69 -1z"/>
<path d="M2510 550 c0 -6 27 -10 60 -10 33 0 60 4 60 10 0 6 -27 10 -60 10
-33 0 -60 -4 -60 -10z"/>
<path d="M2146 468 c-13 -150 -17 -283 -7 -267 11 18 28 329 18 329 -3 0 -8
-28 -11 -62z"/>
<path d="M2470 510 c-16 -5 9 -8 73 -9 63 -1 96 3 92 9 -7 12 -129 12 -165 0z"/>
<path d="M2360 470 c0 -13 267 -12 275 1 4 5 -50 9 -134 9 -88 0 -141 -4 -141
-10z"/>
<path d="M403 400 c0 -36 2 -50 4 -32 2 17 2 47 0 65 -2 17 -4 3 -4 -33z"/>
<path d="M2360 430 c0 -6 51 -10 134 -10 79 0 137 4 141 10 4 6 -43 10 -134
10 -87 0 -141 -4 -141 -10z"/>
<path d="M1595 400 c-80 -4 -33 -6 140 -6 250 0 277 3 75 8 -52 2 -149 1 -215
-2z"/>
<path d="M2360 390 c0 -6 54 -10 141 -10 91 0 138 4 134 10 -4 6 -62 10 -141
10 -83 0 -134 -4 -134 -10z"/>
<path d="M1994 345 c-3 -19 -2 -51 4 -72 9 -36 10 -33 11 35 1 78 -4 92 -15
37z"/>
<path d="M1466 354 c-10 -26 -7 -104 4 -104 6 0 10 27 10 60 0 62 -3 72 -14
44z"/>
<path d="M2360 350 c0 -6 53 -10 140 -10 87 0 140 4 140 10 0 6 -53 10 -140
10 -87 0 -140 -4 -140 -10z"/>
<path d="M1527 343 c-11 -10 -8 -73 3 -73 6 0 10 7 10 15 0 8 7 15 15 15 8 0
15 -7 15 -15 0 -8 3 -15 8 -15 4 0 6 18 4 40 -3 34 -8 40 -26 40 -13 0 -26 -3
-29 -7z"/>
<path d="M1600 310 c0 -37 2 -40 28 -39 23 2 24 2 5 6 -27 5 -31 30 -5 36 16
4 16 5 0 6 -26 2 -22 19 5 24 19 4 18 4 -5 6 -26 1 -28 -2 -28 -39z"/>
<path d="M1667 343 c-13 -13 -7 -32 13 -38 11 -3 20 -11 20 -17 0 -6 -9 -8
-20 -5 -11 3 -20 1 -20 -4 0 -5 11 -9 25 -9 31 0 35 35 5 45 -11 3 -20 11 -20
17 0 6 9 8 20 5 11 -3 20 -1 20 4 0 10 -33 12 -43 2z"/>
<path d="M1720 322 c0 -32 16 -52 41 -52 20 0 30 21 28 58 -1 23 -3 21 -8 -8
-9 -50 -41 -55 -41 -6 0 20 -4 36 -10 36 -5 0 -10 -13 -10 -28z"/>
<path d="M1801 308 c2 -31 3 -35 6 -15 4 23 7 26 19 16 11 -9 17 -9 28 0 12
10 15 7 19 -16 3 -19 4 -13 5 17 l1 45 -20 -24 c-17 -21 -22 -22 -30 -10 -5 7
-9 17 -9 22 0 4 -4 7 -10 7 -5 0 -9 -19 -9 -42z"/>
<path d="M1890 310 c0 -37 2 -40 28 -39 16 1 20 3 10 6 -10 2 -18 11 -18 18 0
7 8 16 18 18 16 4 16 5 0 6 -10 0 -18 5 -18 10 0 5 8 12 18 14 10 3 6 5 -10 6
-26 1 -28 -2 -28 -39z"/>
<path d="M413 320 c3 -13 60 -15 433 -15 l429 0 -424 2 c-324 3 -427 6 -434
16 -6 9 -7 8 -4 -3z"/>
<path d="M2360 320 c0 -6 55 -10 145 -10 90 0 145 4 145 10 0 6 -55 10 -145
10 -90 0 -145 -4 -145 -10z"/>
<path d="M2376 273 c5 -5 77 -6 159 -2 l150 5 -159 2 c-88 1 -156 -1 -150 -5z"/>
<path d="M2390 238 c0 -5 71 -7 158 -6 160 2 142 6 -51 10 -59 2 -107 0 -107
-4z"/>
<path d="M1613 223 c71 -2 183 -2 250 0 67 1 10 3 -128 3 -137 0 -192 -2 -122
-3z"/>
<path d="M2437 198 c2 -5 70 -8 151 -7 107 1 137 3 112 10 -41 10 -270 7 -263
-3z"/>
<path d="M2750 870 c-11 -11 -20 -23 -20 -28 0 -17 32 -52 49 -52 20 0 51 30
51 48 0 15 -36 52 -50 52 -5 0 -19 -9 -30 -20z m47 -26 c8 -20 -8 -36 -26 -25
-15 10 -8 41 9 41 6 0 13 -7 17 -16z"/>
</g>
</svg>
